<svg width="147" height="36" viewBox="0 0 147 36" fill="none" xmlns="http://www.w3.org/2000/svg">
<path d="M15.7969 0.804688V35H9.04688V8.58594L0.9375 11.1641V5.84375L15.0703 0.804688H15.7969ZM50.25 29.7266V35H26.9062V30.5L37.9453 18.6641C39.0547 17.4297 39.9297 16.3438 40.5703 15.4062C41.2109 14.4531 41.6719 13.6016 41.9531 12.8516C42.25 12.0859 42.3984 11.3594 42.3984 10.6719C42.3984 9.64062 42.2266 8.75781 41.8828 8.02344C41.5391 7.27344 41.0312 6.69531 40.3594 6.28906C39.7031 5.88281 38.8906 5.67969 37.9219 5.67969C36.8906 5.67969 36 5.92969 35.25 6.42969C34.5156 6.92969 33.9531 7.625 33.5625 8.51562C33.1875 9.40625 33 10.4141 33 11.5391H26.2266C26.2266 9.50781 26.7109 7.64844 27.6797 5.96094C28.6484 4.25781 30.0156 2.90625 31.7812 1.90625C33.5469 0.890625 35.6406 0.382812 38.0625 0.382812C40.4531 0.382812 42.4688 0.773438 44.1094 1.55469C45.7656 2.32031 47.0156 3.42969 47.8594 4.88281C48.7188 6.32031 49.1484 8.03906 49.1484 10.0391C49.1484 11.1641 48.9688 12.2656 48.6094 13.3438C48.25 14.4062 47.7344 15.4688 47.0625 16.5312C46.4062 17.5781 45.6094 18.6406 44.6719 19.7188C43.7344 20.7969 42.6953 21.9141 41.5547 23.0703L35.625 29.7266H50.25ZM77.4375 14.9375V20.8438C77.4375 23.4062 77.1641 25.6172 76.6172 27.4766C76.0703 29.3203 75.2812 30.8359 74.25 32.0234C73.2344 33.1953 72.0234 34.0625 70.6172 34.625C69.2109 35.1875 67.6484 35.4688 65.9297 35.4688C64.5547 35.4688 63.2734 35.2969 62.0859 34.9531C60.8984 34.5938 59.8281 34.0391 58.875 33.2891C57.9375 32.5391 57.125 31.5938 56.4375 30.4531C55.7656 29.2969 55.25 27.9219 54.8906 26.3281C54.5312 24.7344 54.3516 22.9062 54.3516 20.8438V14.9375C54.3516 12.375 54.625 10.1797 55.1719 8.35156C55.7344 6.50781 56.5234 5 57.5391 3.82812C58.5703 2.65625 59.7891 1.79687 61.1953 1.25C62.6016 0.6875 64.1641 0.40625 65.8828 0.40625C67.2578 0.40625 68.5312 0.585938 69.7031 0.945312C70.8906 1.28906 71.9609 1.82813 72.9141 2.5625C73.8672 3.29688 74.6797 4.24219 75.3516 5.39844C76.0234 6.53906 76.5391 7.90625 76.8984 9.5C77.2578 11.0781 77.4375 12.8906 77.4375 14.9375ZM70.6641 21.7344V14.0234C70.6641 12.7891 70.5938 11.7109 70.4531 10.7891C70.3281 9.86719 70.1328 9.08594 69.8672 8.44531C69.6016 7.78906 69.2734 7.25781 68.8828 6.85156C68.4922 6.44531 68.0469 6.14844 67.5469 5.96094C67.0469 5.77344 66.4922 5.67969 65.8828 5.67969C65.1172 5.67969 64.4375 5.82812 63.8438 6.125C63.2656 6.42188 62.7734 6.89844 62.3672 7.55469C61.9609 8.19531 61.6484 9.05469 61.4297 10.1328C61.2266 11.1953 61.125 12.4922 61.125 14.0234V21.7344C61.125 22.9688 61.1875 24.0547 61.3125 24.9922C61.4531 25.9297 61.6562 26.7344 61.9219 27.4062C62.2031 28.0625 62.5312 28.6016 62.9062 29.0234C63.2969 29.4297 63.7422 29.7266 64.2422 29.9141C64.7578 30.1016 65.3203 30.1953 65.9297 30.1953C66.6797 30.1953 67.3438 30.0469 67.9219 29.75C68.5156 29.4375 69.0156 28.9531 69.4219 28.2969C69.8438 27.625 70.1562 26.75 70.3594 25.6719C70.5625 24.5938 70.6641 23.2812 70.6641 21.7344ZM85.9453 0.875H91.8984L100.664 25.9297L109.43 0.875H115.383L103.055 35H98.2734L85.9453 0.875ZM82.7344 0.875H88.6641L89.7422 25.2969V35H82.7344V0.875ZM112.664 0.875H118.617V35H111.586V25.2969L112.664 0.875Z" fill="#1E1E1E"/>
<path d="M146.438 15.9922V21.875H123.047V15.9922H146.438ZM137.953 6.73438V31.5781H131.555V6.73438H137.953Z" fill="#F0B143"/>
</svg>
