<svg width="110" height="36" viewBox="0 0 110 36" fill="none" xmlns="http://www.w3.org/2000/svg">
<path d="M8.25781 15.0078H11.8672C13.0234 15.0078 13.9766 14.8125 14.7266 14.4219C15.4766 14.0156 16.0312 13.4531 16.3906 12.7344C16.7656 12 16.9531 11.1484 16.9531 10.1797C16.9531 9.30469 16.7812 8.53125 16.4375 7.85938C16.1094 7.17188 15.6016 6.64062 14.9141 6.26562C14.2266 5.875 13.3594 5.67969 12.3125 5.67969C11.4844 5.67969 10.7188 5.84375 10.0156 6.17188C9.3125 6.5 8.75 6.96094 8.32812 7.55469C7.90625 8.14844 7.69531 8.86719 7.69531 9.71094H0.921875C0.921875 7.83594 1.42188 6.20312 2.42188 4.8125C3.4375 3.42188 4.79688 2.33594 6.5 1.55469C8.20312 0.773438 10.0781 0.382812 12.125 0.382812C14.4375 0.382812 16.4609 0.757812 18.1953 1.50781C19.9297 2.24219 21.2812 3.32812 22.25 4.76562C23.2188 6.20312 23.7031 7.98438 23.7031 10.1094C23.7031 11.1875 23.4531 12.2344 22.9531 13.25C22.4531 14.25 21.7344 15.1562 20.7969 15.9688C19.875 16.7656 18.75 17.4062 17.4219 17.8906C16.0938 18.3594 14.6016 18.5938 12.9453 18.5938H8.25781V15.0078ZM8.25781 20.1406V16.6484H12.9453C14.8047 16.6484 16.4375 16.8594 17.8438 17.2812C19.25 17.7031 20.4297 18.3125 21.3828 19.1094C22.3359 19.8906 23.0547 20.8203 23.5391 21.8984C24.0234 22.9609 24.2656 24.1406 24.2656 25.4375C24.2656 27.0312 23.9609 28.4531 23.3516 29.7031C22.7422 30.9375 21.8828 31.9844 20.7734 32.8438C19.6797 33.7031 18.3984 34.3594 16.9297 34.8125C15.4609 35.25 13.8594 35.4688 12.125 35.4688C10.6875 35.4688 9.27344 35.2734 7.88281 34.8828C6.50781 34.4766 5.25781 33.875 4.13281 33.0781C3.02344 32.2656 2.13281 31.25 1.46094 30.0312C0.804688 28.7969 0.476562 27.3359 0.476562 25.6484H7.25C7.25 26.5234 7.46875 27.3047 7.90625 27.9922C8.34375 28.6797 8.94531 29.2188 9.71094 29.6094C10.4922 30 11.3594 30.1953 12.3125 30.1953C13.3906 30.1953 14.3125 30 15.0781 29.6094C15.8594 29.2031 16.4531 28.6406 16.8594 27.9219C17.2812 27.1875 17.4922 26.3359 17.4922 25.3672C17.4922 24.1172 17.2656 23.1172 16.8125 22.3672C16.3594 21.6016 15.7109 21.0391 14.8672 20.6797C14.0234 20.3203 13.0234 20.1406 11.8672 20.1406H8.25781ZM52.25 29.7266V35H28.9062V30.5L39.9453 18.6641C41.0547 17.4297 41.9297 16.3438 42.5703 15.4062C43.2109 14.4531 43.6719 13.6016 43.9531 12.8516C44.25 12.0859 44.3984 11.3594 44.3984 10.6719C44.3984 9.64062 44.2266 8.75781 43.8828 8.02344C43.5391 7.27344 43.0312 6.69531 42.3594 6.28906C41.7031 5.88281 40.8906 5.67969 39.9219 5.67969C38.8906 5.67969 38 5.92969 37.25 6.42969C36.5156 6.92969 35.9531 7.625 35.5625 8.51562C35.1875 9.40625 35 10.4141 35 11.5391H28.2266C28.2266 9.50781 28.7109 7.64844 29.6797 5.96094C30.6484 4.25781 32.0156 2.90625 33.7812 1.90625C35.5469 0.890625 37.6406 0.382812 40.0625 0.382812C42.4531 0.382812 44.4688 0.773438 46.1094 1.55469C47.7656 2.32031 49.0156 3.42969 49.8594 4.88281C50.7188 6.32031 51.1484 8.03906 51.1484 10.0391C51.1484 11.1641 50.9688 12.2656 50.6094 13.3438C50.25 14.4062 49.7344 15.4688 49.0625 16.5312C48.4062 17.5781 47.6094 18.6406 46.6719 19.7188C45.7344 20.7969 44.6953 21.9141 43.5547 23.0703L37.625 29.7266H52.25ZM64.2031 0.875V35H57.1719V0.875H64.2031ZM84.6406 0.875L71.1172 17.7266L63.3125 26.1172L62.0469 19.4609L67.3203 12.2422L76.0156 0.875H84.6406ZM76.6484 35L66.5938 19.2266L71.7969 14.8672L84.9688 35H76.6484Z" fill="#1E1E1E"/>
<path d="M109.344 15.9922V21.875H85.9531V15.9922H109.344ZM100.859 6.73438V31.5781H94.4609V6.73438H100.859Z" fill="#2241CF"/>
</svg>
