<svg width="121" height="36" viewBox="0 0 121 36" fill="none" xmlns="http://www.w3.org/2000/svg">
<path d="M25.25 22.25V27.5469H0.664062L0.335938 23.4453L14.5625 0.875H19.9297L14.1172 10.6016L7.03906 22.25H25.25ZM21.3828 0.875V35H14.6328V0.875H21.3828ZM51.8984 25.6484C51.8984 27.7891 51.3984 29.5938 50.3984 31.0625C49.3984 32.5156 48.0234 33.6172 46.2734 34.3672C44.5391 35.1016 42.5703 35.4688 40.3672 35.4688C38.1641 35.4688 36.1875 35.1016 34.4375 34.3672C32.6875 33.6172 31.3047 32.5156 30.2891 31.0625C29.2734 29.5938 28.7656 27.7891 28.7656 25.6484C28.7656 24.2109 29.0547 22.9141 29.6328 21.7578C30.2109 20.5859 31.0156 19.5859 32.0469 18.7578C33.0938 17.9141 34.3203 17.2734 35.7266 16.8359C37.1328 16.3828 38.6641 16.1562 40.3203 16.1562C42.5391 16.1562 44.5234 16.5469 46.2734 17.3281C48.0234 18.1094 49.3984 19.2109 50.3984 20.6328C51.3984 22.0547 51.8984 23.7266 51.8984 25.6484ZM45.1016 25.2031C45.1016 24.1562 44.8984 23.2578 44.4922 22.5078C44.1016 21.7422 43.5469 21.1562 42.8281 20.75C42.1094 20.3438 41.2734 20.1406 40.3203 20.1406C39.3672 20.1406 38.5312 20.3438 37.8125 20.75C37.0938 21.1562 36.5312 21.7422 36.125 22.5078C35.7344 23.2578 35.5391 24.1562 35.5391 25.2031C35.5391 26.2344 35.7344 27.125 36.125 27.875C36.5312 28.625 37.0938 29.2031 37.8125 29.6094C38.5469 30 39.3984 30.1953 40.3672 30.1953C41.3359 30.1953 42.1719 30 42.875 29.6094C43.5938 29.2031 44.1406 28.625 44.5156 27.875C44.9062 27.125 45.1016 26.2344 45.1016 25.2031ZM51.1719 9.92188C51.1719 11.6562 50.7109 13.1953 49.7891 14.5391C48.8672 15.8672 47.5859 16.9062 45.9453 17.6562C44.3203 18.4062 42.4609 18.7812 40.3672 18.7812C38.2578 18.7812 36.3828 18.4062 34.7422 17.6562C33.1016 16.9062 31.8203 15.8672 30.8984 14.5391C29.9766 13.1953 29.5156 11.6562 29.5156 9.92188C29.5156 7.85938 29.9766 6.125 30.8984 4.71875C31.8359 3.29688 33.1172 2.21875 34.7422 1.48438C36.3828 0.75 38.2422 0.382812 40.3203 0.382812C42.4297 0.382812 44.2969 0.75 45.9219 1.48438C47.5625 2.21875 48.8438 3.29688 49.7656 4.71875C50.7031 6.125 51.1719 7.85938 51.1719 9.92188ZM44.4219 10.2266C44.4219 9.30469 44.2578 8.50781 43.9297 7.83594C43.6016 7.14844 43.1328 6.61719 42.5234 6.24219C41.9297 5.86719 41.1953 5.67969 40.3203 5.67969C39.4766 5.67969 38.75 5.85938 38.1406 6.21875C37.5469 6.57812 37.0859 7.10156 36.7578 7.78906C36.4453 8.46094 36.2891 9.27344 36.2891 10.2266C36.2891 11.1484 36.4453 11.9609 36.7578 12.6641C37.0859 13.3516 37.5547 13.8906 38.1641 14.2812C38.7734 14.6719 39.5078 14.8672 40.3672 14.8672C41.2266 14.8672 41.9531 14.6719 42.5469 14.2812C43.1562 13.8906 43.6172 13.3516 43.9297 12.6641C44.2578 11.9609 44.4219 11.1484 44.4219 10.2266ZM60.3828 0.875H66.3359L75.1016 25.9297L83.8672 0.875H89.8203L77.4922 35H72.7109L60.3828 0.875ZM57.1719 0.875H63.1016L64.1797 25.2969V35H57.1719V0.875ZM87.1016 0.875H93.0547V35H86.0234V25.2969L87.1016 0.875ZM120.875 15.9922V21.875H97.4844V15.9922H120.875ZM112.391 6.73438V31.5781H105.992V6.73438H112.391Z" fill="#1E1E1E"/>
</svg>
