<svg width="87" height="36" viewBox="0 0 87 36" fill="none" xmlns="http://www.w3.org/2000/svg">
<path d="M5.32031 29.8672H5.76562C7.64062 29.8672 9.25 29.6406 10.5938 29.1875C11.9531 28.7188 13.0703 28.0469 13.9453 27.1719C14.8203 26.2969 15.4688 25.2266 15.8906 23.9609C16.3125 22.6797 16.5234 21.2266 16.5234 19.6016V13.1328C16.5234 11.8984 16.3984 10.8125 16.1484 9.875C15.9141 8.9375 15.5703 8.16406 15.1172 7.55469C14.6797 6.92969 14.1641 6.46094 13.5703 6.14844C12.9922 5.83594 12.3516 5.67969 11.6484 5.67969C10.8984 5.67969 10.2344 5.86719 9.65625 6.24219C9.07812 6.60156 8.58594 7.09375 8.17969 7.71875C7.78906 8.34375 7.48438 9.0625 7.26562 9.875C7.0625 10.6719 6.96094 11.5078 6.96094 12.3828C6.96094 13.2578 7.0625 14.0938 7.26562 14.8906C7.46875 15.6719 7.77344 16.3672 8.17969 16.9766C8.58594 17.5703 9.09375 18.0469 9.70312 18.4062C10.3125 18.75 11.0312 18.9219 11.8594 18.9219C12.6562 18.9219 13.3672 18.7734 13.9922 18.4766C14.6328 18.1641 15.1719 17.7578 15.6094 17.2578C16.0625 16.7578 16.4062 16.2031 16.6406 15.5938C16.8906 14.9844 17.0156 14.3672 17.0156 13.7422L19.2422 14.9609C19.2422 16.0547 19.0078 17.1328 18.5391 18.1953C18.0703 19.2578 17.4141 20.2266 16.5703 21.1016C15.7422 21.9609 14.7812 22.6484 13.6875 23.1641C12.5938 23.6797 11.4219 23.9375 10.1719 23.9375C8.57812 23.9375 7.16406 23.6484 5.92969 23.0703C4.69531 22.4766 3.64844 21.6641 2.78906 20.6328C1.94531 19.5859 1.30469 18.3672 0.867188 16.9766C0.429688 15.5859 0.210938 14.0781 0.210938 12.4531C0.210938 10.7969 0.476562 9.24219 1.00781 7.78906C1.55469 6.33594 2.32812 5.05469 3.32812 3.94531C4.34375 2.83594 5.55469 1.96875 6.96094 1.34375C8.38281 0.703125 9.96094 0.382812 11.6953 0.382812C13.4297 0.382812 15.0078 0.71875 16.4297 1.39062C17.8516 2.0625 19.0703 3.01562 20.0859 4.25C21.1016 5.46875 21.8828 6.92969 22.4297 8.63281C22.9922 10.3359 23.2734 12.2266 23.2734 14.3047V16.6484C23.2734 18.8672 23.0312 20.9297 22.5469 22.8359C22.0781 24.7422 21.3672 26.4688 20.4141 28.0156C19.4766 29.5469 18.3047 30.8594 16.8984 31.9531C15.5078 33.0469 13.8906 33.8828 12.0469 34.4609C10.2031 35.0391 8.14062 35.3281 5.85938 35.3281H5.32031V29.8672ZM51.0938 25.6484C51.0938 27.7891 50.5938 29.5938 49.5938 31.0625C48.5938 32.5156 47.2188 33.6172 45.4688 34.3672C43.7344 35.1016 41.7656 35.4688 39.5625 35.4688C37.3594 35.4688 35.3828 35.1016 33.6328 34.3672C31.8828 33.6172 30.5 32.5156 29.4844 31.0625C28.4688 29.5938 27.9609 27.7891 27.9609 25.6484C27.9609 24.2109 28.25 22.9141 28.8281 21.7578C29.4062 20.5859 30.2109 19.5859 31.2422 18.7578C32.2891 17.9141 33.5156 17.2734 34.9219 16.8359C36.3281 16.3828 37.8594 16.1562 39.5156 16.1562C41.7344 16.1562 43.7188 16.5469 45.4688 17.3281C47.2188 18.1094 48.5938 19.2109 49.5938 20.6328C50.5938 22.0547 51.0938 23.7266 51.0938 25.6484ZM44.2969 25.2031C44.2969 24.1562 44.0938 23.2578 43.6875 22.5078C43.2969 21.7422 42.7422 21.1562 42.0234 20.75C41.3047 20.3438 40.4688 20.1406 39.5156 20.1406C38.5625 20.1406 37.7266 20.3438 37.0078 20.75C36.2891 21.1562 35.7266 21.7422 35.3203 22.5078C34.9297 23.2578 34.7344 24.1562 34.7344 25.2031C34.7344 26.2344 34.9297 27.125 35.3203 27.875C35.7266 28.625 36.2891 29.2031 37.0078 29.6094C37.7422 30 38.5938 30.1953 39.5625 30.1953C40.5312 30.1953 41.3672 30 42.0703 29.6094C42.7891 29.2031 43.3359 28.625 43.7109 27.875C44.1016 27.125 44.2969 26.2344 44.2969 25.2031ZM50.3672 9.92188C50.3672 11.6562 49.9062 13.1953 48.9844 14.5391C48.0625 15.8672 46.7812 16.9062 45.1406 17.6562C43.5156 18.4062 41.6562 18.7812 39.5625 18.7812C37.4531 18.7812 35.5781 18.4062 33.9375 17.6562C32.2969 16.9062 31.0156 15.8672 30.0938 14.5391C29.1719 13.1953 28.7109 11.6562 28.7109 9.92188C28.7109 7.85938 29.1719 6.125 30.0938 4.71875C31.0312 3.29688 32.3125 2.21875 33.9375 1.48438C35.5781 0.75 37.4375 0.382812 39.5156 0.382812C41.625 0.382812 43.4922 0.75 45.1172 1.48438C46.7578 2.21875 48.0391 3.29688 48.9609 4.71875C49.8984 6.125 50.3672 7.85938 50.3672 9.92188ZM43.6172 10.2266C43.6172 9.30469 43.4531 8.50781 43.125 7.83594C42.7969 7.14844 42.3281 6.61719 41.7188 6.24219C41.125 5.86719 40.3906 5.67969 39.5156 5.67969C38.6719 5.67969 37.9453 5.85938 37.3359 6.21875C36.7422 6.57812 36.2812 7.10156 35.9531 7.78906C35.6406 8.46094 35.4844 9.27344 35.4844 10.2266C35.4844 11.1484 35.6406 11.9609 35.9531 12.6641C36.2812 13.3516 36.75 13.8906 37.3594 14.2812C37.9688 14.6719 38.7031 14.8672 39.5625 14.8672C40.4219 14.8672 41.1484 14.6719 41.7422 14.2812C42.3516 13.8906 42.8125 13.3516 43.125 12.6641C43.4531 11.9609 43.6172 11.1484 43.6172 10.2266Z" fill="#1E1E1E"/>
<path d="M55.5703 9.24219V7.4375C55.5703 6.14062 55.8516 4.96094 56.4141 3.89844C56.9766 2.83594 57.8047 1.98437 58.8984 1.34375C59.9922 0.703125 61.3359 0.382812 62.9297 0.382812C64.5703 0.382812 65.9375 0.703125 67.0312 1.34375C68.1406 1.98437 68.9688 2.83594 69.5156 3.89844C70.0781 4.96094 70.3594 6.14062 70.3594 7.4375V9.24219C70.3594 10.5078 70.0781 11.6719 69.5156 12.7344C68.9688 13.7969 68.1484 14.6484 67.0547 15.2891C65.9609 15.9297 64.6094 16.25 63 16.25C61.375 16.25 60.0078 15.9297 58.8984 15.2891C57.8047 14.6484 56.9766 13.7969 56.4141 12.7344C55.8516 11.6719 55.5703 10.5078 55.5703 9.24219ZM60.0469 7.4375V9.24219C60.0469 9.78906 60.1484 10.3125 60.3516 10.8125C60.5703 11.2969 60.8984 11.6953 61.3359 12.0078C61.7891 12.3047 62.3359 12.4531 62.9766 12.4531C63.6484 12.4531 64.1953 12.3047 64.6172 12.0078C65.0391 11.6953 65.3516 11.2969 65.5547 10.8125C65.7578 10.3125 65.8594 9.78906 65.8594 9.24219V7.4375C65.8594 6.85938 65.75 6.32812 65.5312 5.84375C65.3281 5.34375 65.0078 4.94531 64.5703 4.64844C64.1484 4.33594 63.6016 4.17969 62.9297 4.17969C62.3047 4.17969 61.7734 4.33594 61.3359 4.64844C60.8984 4.94531 60.5703 5.34375 60.3516 5.84375C60.1484 6.32812 60.0469 6.85938 60.0469 7.4375ZM71.8828 28.4375V26.6328C71.8828 25.3516 72.1641 24.1797 72.7266 23.1172C73.3047 22.0547 74.1406 21.2031 75.2344 20.5625C76.3438 19.9219 77.7031 19.6016 79.3125 19.6016C80.9375 19.6016 82.2969 19.9219 83.3906 20.5625C84.4844 21.2031 85.3125 22.0547 85.875 23.1172C86.4375 24.1797 86.7188 25.3516 86.7188 26.6328V28.4375C86.7188 29.7188 86.4375 30.8906 85.875 31.9531C85.3281 33.0156 84.5078 33.8672 83.4141 34.5078C82.3203 35.1484 80.9688 35.4688 79.3594 35.4688C77.7344 35.4688 76.3672 35.1484 75.2578 34.5078C74.1484 33.8672 73.3047 33.0156 72.7266 31.9531C72.1641 30.8906 71.8828 29.7188 71.8828 28.4375ZM76.3828 26.6328V28.4375C76.3828 29 76.5078 29.5312 76.7578 30.0312C77.0078 30.5312 77.3516 30.9297 77.7891 31.2266C78.2422 31.5234 78.7656 31.6719 79.3594 31.6719C80.1094 31.6719 80.6953 31.5234 81.1172 31.2266C81.5391 30.9297 81.8281 30.5312 81.9844 30.0312C82.1562 29.5312 82.2422 29 82.2422 28.4375V26.6328C82.2422 26.0703 82.1328 25.5469 81.9141 25.0625C81.6953 24.5625 81.3672 24.1641 80.9297 23.8672C80.5078 23.5547 79.9688 23.3984 79.3125 23.3984C78.6562 23.3984 78.1094 23.5547 77.6719 23.8672C77.25 24.1641 76.9297 24.5625 76.7109 25.0625C76.4922 25.5469 76.3828 26.0703 76.3828 26.6328ZM80.9766 5.75L64.3125 32.4219L61.0312 30.6875L77.6953 4.01562L80.9766 5.75Z" fill="#FF3C78"/>
</svg>
