<svg width="147" height="36" fill="none" xmlns="http://www.w3.org/2000/svg"><path d="M15.797.805V35h-6.75V8.586l-8.11 2.578v-5.32L15.07.804h.727zM50.25 29.727V35H26.906v-4.5l11.04-11.836c1.109-1.234 1.984-2.32 2.624-3.258.64-.953 1.102-1.804 1.383-2.554.297-.766.445-1.493.445-2.18 0-1.031-.171-1.914-.515-2.649-.344-.75-.852-1.328-1.524-1.734-.656-.406-1.468-.61-2.437-.61-1.031 0-1.922.25-2.672.75-.734.5-1.297 1.196-1.688 2.087-.374.89-.562 1.898-.562 3.023h-6.773c0-2.031.484-3.89 1.453-5.578.968-1.703 2.336-3.055 4.101-4.055C33.547.891 35.641.383 38.063.383c2.39 0 4.406.39 6.046 1.172 1.657.765 2.907 1.875 3.75 3.328.86 1.437 1.29 3.156 1.29 5.156 0 1.125-.18 2.227-.54 3.305a14.923 14.923 0 01-1.547 3.187 25.67 25.67 0 01-2.39 3.188 73.044 73.044 0 01-3.117 3.351l-5.93 6.657H50.25zm27.188-14.79v5.907c0 2.562-.274 4.773-.82 6.633-.548 1.843-1.337 3.359-2.368 4.546a9.342 9.342 0 01-3.633 2.602c-1.406.563-2.969.844-4.687.844-1.375 0-2.657-.172-3.844-.516a9.672 9.672 0 01-3.211-1.664c-.938-.75-1.75-1.695-2.438-2.836-.671-1.156-1.187-2.531-1.546-4.125-.36-1.594-.54-3.422-.54-5.484v-5.907c0-2.562.274-4.757.82-6.585.563-1.844 1.352-3.352 2.368-4.524 1.031-1.172 2.25-2.031 3.656-2.578 1.407-.563 2.97-.844 4.688-.844 1.375 0 2.648.18 3.82.54a9.57 9.57 0 013.211 1.617c.953.734 1.766 1.68 2.438 2.835.671 1.141 1.187 2.508 1.546 4.102.36 1.578.54 3.39.54 5.438zm-6.774 6.797v-7.71c0-1.235-.07-2.313-.21-3.235-.126-.922-.321-1.703-.587-2.344-.265-.656-.594-1.187-.984-1.593a3.585 3.585 0 00-1.336-.891 4.707 4.707 0 00-1.664-.281c-.766 0-1.445.148-2.04.445-.577.297-1.07.773-1.476 1.43-.406.64-.719 1.5-.937 2.578-.203 1.062-.305 2.36-.305 3.89v7.711c0 1.235.063 2.32.188 3.258.14.938.343 1.742.609 2.414.281.657.61 1.196.984 1.617.39.407.836.704 1.336.891a4.903 4.903 0 001.688.281c.75 0 1.414-.148 1.992-.445.594-.313 1.094-.797 1.5-1.453.422-.672.734-1.547.937-2.625.204-1.078.305-2.39.305-3.938zM85.945.875h5.953l8.766 25.055L109.43.875h5.953L103.055 35h-4.782L85.945.875zm-3.21 0h5.93l1.077 24.422V35h-7.008V.875zm29.929 0h5.953V35h-7.031v-9.703L112.664.875z" fill="#1E1E1E"/><path d="M146.438 15.992v5.883h-23.391v-5.883h23.391zm-8.485-9.258v24.844h-6.398V6.734h6.398z" fill="#F0B143"/></svg>