<svg width="110" height="36" fill="none" xmlns="http://www.w3.org/2000/svg"><path d="M8.258 15.008h3.61c1.155 0 2.109-.195 2.859-.586.75-.406 1.304-.969 1.664-1.688.375-.734.562-1.586.562-2.554 0-.875-.172-1.649-.515-2.32a3.495 3.495 0 00-1.524-1.594c-.687-.391-1.555-.586-2.601-.586-.829 0-1.594.164-2.297.492a4.206 4.206 0 00-1.688 1.383c-.422.593-.633 1.312-.633 2.156H.922c0-1.875.5-3.508 1.5-4.899C3.437 3.423 4.797 2.337 6.5 1.555 8.203.773 10.078.383 12.125.383c2.313 0 4.336.375 6.07 1.125 1.735.734 3.086 1.82 4.055 3.258.969 1.437 1.453 3.218 1.453 5.343 0 1.079-.25 2.125-.75 3.141-.5 1-1.219 1.906-2.156 2.719-.922.797-2.047 1.437-3.375 1.922-1.328.468-2.82.703-4.477.703H8.258v-3.586zm0 5.133v-3.493h4.687c1.86 0 3.492.211 4.899.633 1.406.422 2.586 1.032 3.539 1.828a7.602 7.602 0 012.156 2.79c.484 1.062.727 2.242.727 3.538 0 1.594-.305 3.016-.914 4.266a8.931 8.931 0 01-2.579 3.14c-1.093.86-2.375 1.516-3.843 1.97-1.47.437-3.07.656-4.805.656-1.438 0-2.852-.196-4.242-.586a12.623 12.623 0 01-3.75-1.805 9.284 9.284 0 01-2.672-3.047c-.656-1.234-.984-2.695-.984-4.383H7.25c0 .875.219 1.657.656 2.344a4.53 4.53 0 001.805 1.617c.781.391 1.648.586 2.601.586 1.079 0 2-.195 2.766-.586.781-.406 1.375-.968 1.781-1.687.422-.735.633-1.586.633-2.555 0-1.25-.226-2.25-.68-3a4.033 4.033 0 00-1.945-1.687c-.844-.36-1.844-.54-3-.54h-3.61zm43.992 9.586V35H28.906v-4.5l11.04-11.836c1.109-1.234 1.984-2.32 2.624-3.258.64-.953 1.102-1.804 1.383-2.554.297-.766.445-1.493.445-2.18 0-1.031-.171-1.914-.515-2.649-.344-.75-.852-1.328-1.524-1.734-.656-.406-1.468-.61-2.437-.61-1.031 0-1.922.25-2.672.75-.734.5-1.297 1.196-1.688 2.087-.374.89-.562 1.898-.562 3.023h-6.773c0-2.031.484-3.89 1.453-5.578.968-1.703 2.336-3.055 4.101-4.055C35.547.891 37.641.383 40.063.383c2.39 0 4.406.39 6.046 1.172 1.657.765 2.907 1.875 3.75 3.328.86 1.437 1.29 3.156 1.29 5.156 0 1.125-.18 2.227-.54 3.305a14.923 14.923 0 01-1.547 3.187 25.67 25.67 0 01-2.39 3.188 73.044 73.044 0 01-3.117 3.351l-5.93 6.657H52.25zM64.203.875V35h-7.031V.875h7.031zm20.438 0L71.117 17.727l-7.805 8.39-1.265-6.656 5.273-7.219L76.016.875h8.625zM76.648 35L66.594 19.227l5.203-4.36L84.969 35h-8.32z" fill="#1E1E1E"/><path d="M109.344 15.992v5.883h-23.39v-5.883h23.39zm-8.485-9.258v24.844h-6.398V6.734h6.398z" fill="#2241CF"/></svg>