<svg width="121" height="36" fill="none" xmlns="http://www.w3.org/2000/svg"><path d="M25.25 22.25v5.297H.664l-.328-4.102L14.562.875h5.368l-5.813 9.727L7.04 22.25h18.21zM21.383.875V35h-6.75V.875h6.75zm30.515 24.773c0 2.141-.5 3.946-1.5 5.415-1 1.453-2.375 2.554-4.125 3.304-1.734.735-3.703 1.102-5.906 1.102s-4.18-.367-5.93-1.102c-1.75-.75-3.132-1.851-4.148-3.304-1.016-1.47-1.523-3.274-1.523-5.415 0-1.437.289-2.734.867-3.89a8.799 8.799 0 012.414-3c1.047-.844 2.273-1.485 3.68-1.922 1.406-.453 2.937-.68 4.593-.68 2.22 0 4.203.39 5.953 1.172 1.75.781 3.125 1.883 4.125 3.305 1 1.422 1.5 3.094 1.5 5.015zm-6.796-.445c0-1.047-.204-1.945-.61-2.695a4.114 4.114 0 00-1.664-1.758c-.719-.406-1.555-.61-2.508-.61-.953 0-1.789.204-2.508.61a4.26 4.26 0 00-1.687 1.758c-.39.75-.586 1.648-.586 2.695 0 1.031.195 1.922.586 2.672.406.75.969 1.328 1.688 1.734.734.391 1.585.586 2.554.586.969 0 1.805-.195 2.508-.586a4 4 0 001.64-1.734c.391-.75.587-1.64.587-2.672zm6.07-15.281c0 1.734-.461 3.273-1.383 4.617-.922 1.328-2.203 2.367-3.844 3.117-1.625.75-3.484 1.125-5.578 1.125-2.11 0-3.984-.375-5.625-1.125-1.64-.75-2.922-1.789-3.844-3.117-.921-1.344-1.382-2.883-1.382-4.617 0-2.063.46-3.797 1.382-5.203.938-1.422 2.22-2.5 3.844-3.235C36.382.75 38.242.383 40.32.383c2.11 0 3.977.367 5.602 1.101 1.64.735 2.922 1.813 3.844 3.235.937 1.406 1.406 3.14 1.406 5.203zm-6.75.305c0-.922-.164-1.72-.492-2.391-.328-.688-.797-1.219-1.407-1.594-.593-.375-1.328-.562-2.203-.562-.843 0-1.57.18-2.18.539-.593.36-1.054.883-1.382 1.57-.313.672-.469 1.484-.469 2.438 0 .921.156 1.734.469 2.437a3.836 3.836 0 001.406 1.617c.61.39 1.344.586 2.203.586.86 0 1.586-.195 2.18-.586.61-.39 1.07-.93 1.383-1.617.328-.703.492-1.516.492-2.437zM60.382.875h5.954l8.766 25.055L83.867.875h5.953L77.492 35h-4.781L60.383.875zm-3.21 0h5.93l1.078 24.422V35h-7.008V.875zm29.93 0h5.953V35h-7.032v-9.703L87.102.875zm33.773 15.117v5.883h-23.39v-5.883h23.39zm-8.484-9.258v24.844h-6.399V6.734h6.399z" fill="#1E1E1E"/></svg>