<svg width="195" height="135" fill="none" xmlns="http://www.w3.org/2000/svg"><path d="M2.321 110.479c-.926 6.598-.397 20.27 9.137 22.17 11.917 2.376 31.383-6.73 44.889-45.529 13.506-38.799-5.889-11.377-8.74-3.563-3.177 8.71-3.177 26.922 6.357 26.922 7.627 0 25.953-21.38 34.163-32.069 3.972-5.147 12.473-19.241 14.698-34.444 2.224-15.203-9.931 2.112-16.287 12.67-4.9 8.313-10.885 25.337 4.37 26.92 15.254 1.585 39.459-35.763 49.655-54.634 1.854-3.3 4.688-10.056 1.192-10.69-3.496-.633-9.401 12.141-11.917 18.608-1.987 4.883-4.291 15.044 2.383 16.628C138.895 55.052 175.521 19.816 193 2" stroke="#5DD7CA" stroke-width="3"/></svg>