<?xml version="1.0" standalone="no"?>
<!DOCTYPE svg PUBLIC "-//W3C//DTD SVG 20010904//EN"
 "http://www.w3.org/TR/2001/REC-SVG-20010904/DTD/svg10.dtd">
<svg version="1.0" xmlns="http://www.w3.org/2000/svg"
 width="119.000000pt" height="119.000000pt" viewBox="0 0 119.000000 119.000000"
 preserveAspectRatio="xMidYMid meet">
<metadata>
Created by potrace 1.14, written by Peter Selinger 2001-2017
</metadata>
<g transform="translate(0.000000,119.000000) scale(0.100000,-0.100000)"
fill="#000000" stroke="none">
<path d="M0 595 l0 -595 595 0 595 0 0 595 0 595 -595 0 -595 0 0 -595z m299
174 c-71 -196 -98 -368 -63 -403 22 -23 37 -20 66 12 41 44 55 80 98 259 50
210 51 213 91 213 25 0 30 -3 26 -17 -3 -10 -23 -76 -45 -148 -45 -149 -67
-283 -53 -332 9 -31 8 -33 -15 -33 -19 0 -28 8 -36 32 -10 29 -12 30 -24 13
-22 -29 -67 -55 -97 -55 -91 0 -107 82 -56 299 48 206 64 240 116 241 22 0 22
0 -8 -81z m333 37 c-3 -24 -41 -156 -59 -203 -3 -7 9 1 27 17 43 40 79 49 97
25 18 -26 17 -38 -9 -70 -29 -37 -35 -125 -8 -125 20 0 81 63 106 112 10 18
17 47 16 63 -2 29 27 75 47 75 17 0 33 -31 29 -55 -5 -22 -2 -25 24 -25 22 0
31 -6 39 -27 8 -22 5 -34 -21 -76 -31 -50 -33 -77 -6 -77 16 0 69 48 104 93
12 16 26 27 33 25 15 -5 -59 -102 -102 -133 -36 -27 -71 -32 -86 -12 -22 28
-21 48 8 102 32 60 31 75 -4 75 -18 0 -34 -19 -72 -85 -46 -77 -75 -110 -75
-84 0 5 -13 3 -30 -6 -39 -20 -57 -19 -70 6 -8 15 -8 29 -1 51 14 41 14 40
-10 33 -13 -4 -25 -2 -29 6 -12 19 0 39 23 39 24 0 57 27 57 47 0 25 -36 13
-72 -24 -29 -30 -39 -51 -49 -101 -9 -50 -15 -62 -30 -62 -11 0 -19 4 -19 9 0
6 16 74 35 153 20 79 38 169 42 200 6 57 15 69 53 64 10 -1 14 -11 12 -30z"/>
</g>
</svg>
