<svg width="87" height="36" fill="none" xmlns="http://www.w3.org/2000/svg"><path d="M5.32 29.867h.446c1.875 0 3.484-.226 4.828-.68 1.36-.468 2.476-1.14 3.351-2.015.875-.875 1.524-1.945 1.946-3.211.421-1.281.632-2.734.632-4.36v-6.468c0-1.235-.125-2.32-.375-3.258-.234-.938-.578-1.71-1.03-2.32-.438-.625-.954-1.094-1.548-1.407a3.976 3.976 0 00-1.922-.468c-.75 0-1.414.187-1.992.562A4.76 4.76 0 008.18 7.719a7.935 7.935 0 00-.914 2.156 10.116 10.116 0 00-.305 2.508c0 .875.101 1.71.305 2.508.203.78.507 1.476.914 2.086.406.593.914 1.07 1.523 1.43.61.343 1.328.515 2.156.515.797 0 1.508-.149 2.133-.445a5.075 5.075 0 001.617-1.22c.454-.5.797-1.054 1.032-1.663a4.84 4.84 0 00.375-1.852l2.226 1.219a7.945 7.945 0 01-.703 3.234 9.96 9.96 0 01-1.969 2.907 9.732 9.732 0 01-2.883 2.062 8.141 8.141 0 01-3.515.773c-1.594 0-3.008-.289-4.242-.867a9.26 9.26 0 01-3.14-2.437c-.845-1.047-1.485-2.266-1.923-3.656-.437-1.391-.656-2.899-.656-4.524 0-1.656.266-3.21.797-4.664a11.986 11.986 0 012.32-3.844 10.829 10.829 0 013.633-2.601c1.422-.64 3-.961 4.734-.961 1.735 0 3.313.336 4.735 1.008a10.487 10.487 0 013.656 2.859c1.016 1.219 1.797 2.68 2.344 4.383.562 1.703.843 3.594.843 5.672v2.343c0 2.22-.242 4.282-.726 6.188-.469 1.906-1.18 3.633-2.133 5.18a14.607 14.607 0 01-3.516 3.937c-1.39 1.094-3.007 1.93-4.851 2.508-1.844.578-3.906.867-6.188.867H5.32v-5.46zm45.774-4.219c0 2.141-.5 3.946-1.5 5.415-1 1.453-2.375 2.554-4.125 3.304-1.735.735-3.703 1.102-5.907 1.102-2.203 0-4.18-.367-5.93-1.102-1.75-.75-3.132-1.851-4.148-3.304-1.015-1.47-1.523-3.274-1.523-5.415 0-1.437.289-2.734.867-3.89a8.799 8.799 0 012.414-3c1.047-.844 2.274-1.485 3.68-1.922 1.406-.453 2.937-.68 4.594-.68 2.218 0 4.203.39 5.953 1.172 1.75.781 3.125 1.883 4.125 3.305 1 1.422 1.5 3.094 1.5 5.015zm-6.797-.445c0-1.047-.203-1.945-.61-2.695a4.114 4.114 0 00-1.664-1.758c-.718-.406-1.554-.61-2.507-.61-.953 0-1.79.204-2.508.61a4.261 4.261 0 00-1.688 1.758c-.39.75-.586 1.648-.586 2.695 0 1.031.196 1.922.586 2.672.407.75.97 1.328 1.688 1.734.734.391 1.586.586 2.554.586.97 0 1.805-.195 2.508-.586a4 4 0 001.64-1.734c.392-.75.587-1.64.587-2.672zm6.07-15.281c0 1.734-.46 3.273-1.383 4.617-.922 1.328-2.203 2.367-3.843 3.117-1.625.75-3.485 1.125-5.578 1.125-2.11 0-3.985-.375-5.626-1.125-1.64-.75-2.921-1.789-3.843-3.117-.922-1.344-1.383-2.883-1.383-4.617 0-2.063.46-3.797 1.383-5.203.937-1.422 2.218-2.5 3.843-3.235C35.578.75 37.438.383 39.517.383c2.109 0 3.976.367 5.601 1.101 1.64.735 2.922 1.813 3.844 3.235.937 1.406 1.406 3.14 1.406 5.203zm-6.75.305c0-.922-.164-1.72-.492-2.391-.328-.688-.797-1.219-1.406-1.594-.594-.375-1.328-.562-2.203-.562-.844 0-1.57.18-2.18.539-.594.36-1.055.883-1.383 1.57-.312.672-.469 1.484-.469 2.438 0 .921.157 1.734.47 2.437a3.836 3.836 0 001.405 1.617c.61.39 1.344.586 2.203.586.86 0 1.586-.195 2.18-.586.61-.39 1.07-.93 1.383-1.617.328-.703.492-1.516.492-2.437z" fill="#1E1E1E"/><path d="M55.57 9.242V7.437c0-1.296.282-2.476.844-3.539.563-1.062 1.39-1.914 2.484-2.554 1.094-.64 2.438-.961 4.032-.961 1.64 0 3.008.32 4.101.96 1.11.641 1.938 1.493 2.485 2.555.562 1.063.843 2.243.843 3.54v1.804c0 1.266-.28 2.43-.843 3.492-.547 1.063-1.368 1.914-2.461 2.555-1.094.64-2.446.961-4.055.961-1.625 0-2.992-.32-4.102-.96-1.093-.642-1.921-1.493-2.484-2.556-.562-1.062-.844-2.226-.844-3.492zm4.477-1.805v1.805c0 .547.101 1.07.305 1.57.218.485.546.883.984 1.196.453.297 1 .445 1.64.445.672 0 1.22-.148 1.641-.445a2.82 2.82 0 00.938-1.195c.203-.5.304-1.024.304-1.57V7.436c0-.578-.109-1.109-.328-1.593a2.588 2.588 0 00-.96-1.196c-.423-.312-.97-.468-1.641-.468-.625 0-1.157.156-1.594.468a2.737 2.737 0 00-.984 1.196 4.08 4.08 0 00-.305 1.593zm11.836 21v-1.804c0-1.281.281-2.453.844-3.516.578-1.062 1.414-1.914 2.507-2.555 1.11-.64 2.47-.96 4.079-.96 1.624 0 2.984.32 4.078.96 1.093.641 1.921 1.493 2.484 2.555.563 1.063.844 2.235.844 3.516v1.805c0 1.28-.281 2.453-.844 3.515-.547 1.063-1.367 1.914-2.46 2.555-1.095.64-2.446.96-4.056.96-1.625 0-2.992-.32-4.101-.96-1.11-.64-1.953-1.492-2.531-2.555-.563-1.062-.844-2.234-.844-3.515zm4.5-1.804v1.805c0 .562.125 1.093.375 1.593s.594.899 1.031 1.196c.453.296.977.445 1.57.445.75 0 1.336-.149 1.758-.445.422-.297.711-.696.867-1.196a4.87 4.87 0 00.258-1.593v-1.805c0-.563-.11-1.086-.328-1.57a2.738 2.738 0 00-.984-1.196c-.422-.312-.961-.469-1.618-.469-.656 0-1.203.157-1.64.47a2.799 2.799 0 00-.961 1.195 3.771 3.771 0 00-.328 1.57zM80.977 5.75L64.312 32.422l-3.28-1.734L77.694 4.015l3.282 1.734z" fill="#FF3C78"/></svg>